<?xml version="1.0" encoding="iso-8859-1"?>
<!-- Generator: Adobe Illustrator 18.0.0, SVG Export Plug-In . SVG Version: 6.00 Build 0)  -->
<!DOCTYPE svg PUBLIC "-//W3C//DTD SVG 1.1//EN" "http://www.w3.org/Graphics/SVG/1.1/DTD/svg11.dtd">
<svg version="1.1" id="Capa_1" xmlns="http://www.w3.org/2000/svg" xmlns:xlink="http://www.w3.org/1999/xlink" x="0px" y="0px"
	 viewBox="0 0 58 58" style="enable-background:new 0 0 58 58;" xml:space="preserve">
<g>
	<path d="M43.585,38.542c-0.27-0.032-0.543-0.053-0.821-0.053c-0.491,0-0.969,0.053-1.431,0.151
		c-4.595,0.594-8.827,3.552-12.062,8.492l-0.466,0.711l0.359,0.548C32.798,53.942,37.693,57,42.947,57
		c5.253,0,10.148-3.058,13.783-8.609l0.466-0.711l-0.359-0.548C53.325,41.768,48.636,38.741,43.585,38.542z M47.673,45.397
		c0,2.707-2.202,4.909-4.909,4.909s-4.909-2.202-4.909-4.909c0-2.343,1.652-4.302,3.852-4.788c0.446-0.053,0.895-0.087,1.348-0.087
		c0.025,0,0.05,0.002,0.075,0.003C45.663,40.716,47.673,42.815,47.673,45.397z M42.947,55c-4.387,0-8.538-2.537-11.744-7.161
		c1.559-2.286,3.348-4.069,5.28-5.304c-0.4,0.874-0.629,1.841-0.629,2.863c0,3.81,3.1,6.909,6.909,6.909s6.909-3.1,6.909-6.909
		c0-1.216-0.318-2.357-0.872-3.351c2.204,1.207,4.242,3.107,5.996,5.637C51.577,52.406,47.383,55,42.947,55z"/>
	<path d="M56.435,1H1.565C0.701,1,0,1.701,0,2.565v45.869C0,49.299,0.701,50,1.565,50h25.066l-1.413-2.158l1.543-2.354
		c2.184-3.335,4.795-5.885,7.681-7.574C31.361,37.445,29,34.976,29,32c0-3.309,2.916-6,6.5-6c1.746,0,3.331,0.642,4.5,1.68v-9.51
		l-17,2.684v17.248c0,0.013-0.007,0.025-0.008,0.038C22.911,41.383,20.033,44,16.5,44c-3.584,0-6.5-2.691-6.5-6s2.916-6,6.5-6
		c1.746,0,3.331,0.642,4.5,1.68V20v-2.714V14c0-0.492,0.358-0.911,0.844-0.987l19-3c0.29-0.047,0.583,0.037,0.805,0.228
		C41.872,10.43,42,10.708,42,11v1v5v15c0,1.4-0.526,2.686-1.4,3.708c0.808-0.121,1.626-0.186,2.454-0.186
		c5.653,0,10.89,2.859,14.946,8.09V2.565C58,1.701,57.299,1,56.435,1z"/>
</g>
<g>
</g>
<g>
</g>
<g>
</g>
<g>
</g>
<g>
</g>
<g>
</g>
<g>
</g>
<g>
</g>
<g>
</g>
<g>
</g>
<g>
</g>
<g>
</g>
<g>
</g>
<g>
</g>
<g>
</g>
</svg>
